<?xml version="1.0" encoding="UTF-8"?>
<svg xmlns="http://www.w3.org/2000/svg" xmlns:xlink="http://www.w3.org/1999/xlink" width="425.2pt" height="90.84pt" viewBox="0 0 425.2 90.84" version="1.1">
<defs>
<clipPath id="clip1">
  <path d="M 358 0 L 425.199219 0 L 425.199219 41 L 358 41 Z M 358 0 "/>
</clipPath>
<clipPath id="clip2">
  <path d="M 248 38 L 310 38 L 310 90.839844 L 248 90.839844 Z M 248 38 "/>
</clipPath>
</defs>
<g id="surface1">
<g clip-path="url(#clip1)" clip-rule="nonzero">
<path style=" stroke:none;fill-rule:nonzero;fill:rgb(81.199646%,59.199524%,10.998535%);fill-opacity:1;" d="M 375.820313 0.796875 L 390.953125 7.019531 L 399.585938 2.085938 L 402.429688 9.960938 L 421.972656 13.089844 L 408.597656 16.980469 L 425.195313 31.398438 L 404.328125 21.816406 L 404.328125 40.503906 L 392.757813 20.394531 L 367.09375 30.421875 L 380.519531 14.988281 L 358.324219 11.097656 L 382.324219 9.863281 L 373.878906 0 L 375.820313 0.796875 "/>
</g>
<path style=" stroke:none;fill-rule:nonzero;fill:rgb(0%,25.898743%,43.899536%);fill-opacity:1;" d="M 67.300781 38.417969 L 50.796875 38.417969 L 45.816406 56.769531 L 24.472656 56.769531 L 29.878906 37.988281 L 13.089844 37.988281 L 0 89.496094 L 16.363281 89.496094 L 22.339844 67.585938 L 42.828125 67.585938 L 37.277344 89.640625 L 53.785156 89.640625 L 67.300781 38.417969 "/>
<path style=" stroke:none;fill-rule:nonzero;fill:rgb(0%,25.898743%,43.899536%);fill-opacity:1;" d="M 90.777344 66.660156 C 89.710938 66.160156 90.210938 65.523438 90.210938 65.523438 L 97.820313 51.578125 C 98.175781 50.867188 99.242188 51.363281 99.242188 51.363281 L 101.023438 60.257813 C 96.398438 62.890625 90.777344 66.660156 90.777344 66.660156 Z M 343.050781 10.625 C 216.320313 7.207031 145.132813 39.980469 145.132813 39.980469 L 144.277344 38.132813 L 127.203125 38.132813 L 130.902344 45.53125 C 124.640625 47.949219 113.402344 54.210938 113.402344 54.210938 L 109.417969 38.273438 L 92.203125 38.273438 L 60.757813 89.921875 L 78.113281 89.921875 C 84.375 81.386719 102.871094 68.722656 102.871094 68.722656 L 105.574219 89.921875 L 121.652344 89.921875 L 114.636719 60.328125 C 200.386719 7.589844 343.050781 10.625 343.050781 10.625 "/>
<path style=" stroke:none;fill-rule:nonzero;fill:rgb(0%,25.898743%,43.899536%);fill-opacity:1;" d="M 134.460938 51.933594 L 142.710938 68.582031 L 137.164063 89.496094 L 153.953125 89.496094 L 158.789063 69.863281 L 184.6875 38.699219 L 166.617188 38.84375 L 152.671875 57.910156 L 146.839844 45.957031 L 134.460938 51.933594 "/>
<path style=" stroke:none;fill-rule:nonzero;fill:rgb(0%,25.898743%,43.899536%);fill-opacity:1;" d="M 225.378906 62.605469 C 223.105469 77.542969 212.003906 78.824219 212.003906 78.824219 L 196.921875 78.683594 L 204.464844 48.804688 L 214.566406 48.945313 C 229.222656 49.800781 225.378906 62.605469 225.378906 62.605469 Z M 217.128906 38.699219 L 191.089844 38.273438 L 178.140625 89.355469 L 212.289063 89.355469 C 212.289063 89.355469 241.175781 88.925781 241.175781 58.761719 C 241.175781 58.761719 241.742188 38.132813 217.128906 38.699219 "/>
<g clip-path="url(#clip2)" clip-rule="nonzero">
<path style=" stroke:none;fill-rule:nonzero;fill:rgb(0%,25.898743%,43.899536%);fill-opacity:1;" d="M 272.476563 38.84375 L 255.972656 38.84375 L 248.714844 69.292969 C 248.714844 69.292969 241.457031 90.207031 273.613281 90.777344 C 273.613281 90.777344 296.523438 93.054688 301.21875 70.144531 L 309.898438 38.699219 L 293.960938 38.699219 L 285.851563 68.582031 C 285.851563 68.582031 283.71875 80.105469 272.761719 80.25 C 272.761719 80.25 260.667969 81.386719 264.9375 66.019531 L 272.476563 38.84375 "/>
</g>
<path style=" stroke:none;fill-rule:nonzero;fill:rgb(0%,25.898743%,43.899536%);fill-opacity:1;" d="M 338.640625 38.132813 L 322.132813 38.273438 L 308.476563 89.496094 L 324.839844 89.496094 L 328.394531 74.558594 L 335.226563 69.007813 L 346.609375 89.78125 L 363.398438 89.496094 L 346.890625 60.613281 L 375.347656 38.558594 L 355.429688 38.558594 L 333.515625 56.203125 L 338.640625 38.132813 "/>
</g>
</svg>
