<?xml version="1.0" encoding="UTF-8"?>
<svg xmlns="http://www.w3.org/2000/svg" xmlns:xlink="http://www.w3.org/1999/xlink" width="153pt" height="65pt" viewBox="0 0 153 65" version="1.1">
<g id="surface1">
<path style=" stroke:none;fill-rule:evenodd;fill:rgb(92.89856%,10.998535%,14.099121%);fill-opacity:1;" d="M 17.105469 0.015625 C 8.292969 7.617188 14.050781 21.5625 21.867188 31.910156 C 30.1875 42.921875 45.359375 56.941406 66.722656 64.03125 C 58.820313 64.03125 50.921875 64.03125 43.019531 64.03125 C 30.210938 52.609375 23.175781 44.113281 17.425781 35.738281 C 5.65625 18.59375 6.84375 6.167969 17.105469 0.015625 "/>
<path style=" stroke:none;fill-rule:evenodd;fill:rgb(92.89856%,10.998535%,14.099121%);fill-opacity:1;" d="M 8.6875 5.332031 C -1.132813 17.808594 -2.386719 32.429688 6.695313 49.632813 C 11.640625 49.632813 16.585938 49.632813 21.535156 49.632813 C 7.835938 34.3125 2.300781 19.46875 8.6875 5.332031 "/>
<path style=" stroke:none;fill-rule:evenodd;fill:rgb(13.699341%,12.199402%,12.5%);fill-opacity:1;" d="M 87.191406 29.421875 C 85.734375 29.421875 84.878906 28.839844 84.148438 28.074219 C 83.605469 27.507813 82.886719 25.910156 82.886719 24.851563 L 82.886719 23.023438 C 82.886719 20.007813 83.949219 17.207031 85.148438 15.320313 C 86.234375 13.613281 88.253906 11.136719 90.914063 11.136719 L 92.070313 11.136719 C 92.890625 11.136719 93.953125 11.730469 94.371094 12.152344 C 95.117188 12.90625 95.082031 13.597656 95.53125 14.296875 L 95.710938 16.042969 L 95.710938 17.289063 C 95.710938 20.058594 94.367188 23.394531 93.277344 25.148438 C 92.070313 27.089844 90.234375 29.421875 87.191406 29.421875 Z M 84.625 12.550781 L 82.308594 14.796875 C 82.277344 14.914063 80.828125 17.09375 80.542969 17.761719 C 80.171875 18.628906 79.660156 20.433594 79.660156 21.609375 L 79.613281 22.367188 L 79.90625 24.4375 C 80.210938 24.890625 80.390625 26.089844 80.769531 26.648438 C 81.199219 27.289063 81.546875 27.871094 82.078125 28.40625 C 82.945313 29.273438 84.617188 30.421875 86.277344 30.421875 L 87.683594 30.421875 C 90.609375 30.421875 94.4375 27.582031 95.898438 25.953125 C 96.78125 24.972656 97.746094 23.363281 98.210938 21.960938 C 98.40625 21.375 98.769531 20.132813 98.777344 19.371094 C 98.785156 18.261719 98.609375 17.414063 98.621094 16.449219 L 98.441406 16.207031 C 98.441406 15.460938 97.492188 13.730469 97.117188 13.300781 L 95.792969 11.804688 C 94.511719 10.941406 93.410156 10.140625 91.242188 10.140625 C 89.710938 10.140625 88.648438 10.507813 87.519531 10.886719 C 86.941406 11.082031 86.53125 11.347656 86.015625 11.621094 C 85.460938 11.914063 85.074219 12.3125 84.625 12.550781 Z M 49.042969 29.257813 L 47.636719 29.257813 C 46.199219 29.257813 44.574219 28.234375 44.574219 26.765625 C 44.574219 25.324219 45.320313 24.011719 45.320313 23.105469 C 45.671875 22.578125 47.277344 16.871094 47.589844 15.742188 C 47.667969 15.457031 48.730469 12.09375 48.738281 12.078125 C 48.996094 11.769531 52.015625 11.304688 52.769531 11.304688 C 55.421875 11.304688 57.898438 12.769531 57.898438 15.292969 L 57.898438 16.789063 C 57.898438 18.921875 55.996094 23.308594 55.082031 24.601563 C 54.210938 25.835938 53.925781 26.523438 52.707031 27.535156 C 51.878906 28.222656 50.484375 29.257813 49.042969 29.257813 Z M 33.820313 38.980469 L 33.820313 39.5625 C 33.886719 39.609375 34.023438 39.730469 34.066406 39.730469 C 34.816406 39.730469 35.96875 39.65625 36.699219 39.546875 C 37.640625 39.40625 38.308594 39.417969 39.449219 39.402344 C 41.203125 39.375 43.132813 39.480469 44.988281 39.480469 C 45.21875 39.328125 45.402344 39.289063 45.402344 38.898438 L 45.402344 38.816406 C 45.402344 37.886719 41.429688 38.761719 41.429688 36.738281 L 41.429688 36.488281 C 41.429688 35.40625 42.425781 33.542969 42.460938 32.675781 L 43.664063 28.675781 C 43.738281 28.695313 45.089844 29.640625 45.351563 29.804688 C 45.761719 30.0625 46.992188 30.421875 47.636719 30.421875 L 48.714844 30.421875 C 51.898438 30.421875 55.96875 27.714844 57.320313 25.847656 C 58.414063 24.339844 59.039063 23.652344 59.882813 21.777344 C 60.519531 20.355469 61.207031 18.507813 61.207031 16.457031 L 61.207031 16.375 C 61.207031 14.121094 60.234375 12.675781 58.933594 11.675781 C 57.933594 10.90625 55.316406 9.9375 53.421875 10.089844 L 49.210938 10.554688 C 49.277344 9.734375 50.285156 7.519531 50.285156 6.898438 L 50.285156 6.734375 C 50.285156 6.53125 50.152344 6.488281 50.035156 6.316406 L 47.804688 6.316406 C 47.148438 7.214844 47.164063 7.554688 46.78125 8.699219 C 46.597656 9.253906 46.21875 10.976563 46.015625 11.335938 C 45.753906 11.789063 41.515625 12.914063 41.515625 13.714844 L 41.515625 14.046875 C 41.863281 14.140625 41.660156 14.214844 41.929688 14.214844 C 42.824219 14.214844 44.777344 12.941406 45.5 12.886719 L 41.183594 27.261719 C 40.972656 27.582031 39.101563 33.765625 38.929688 34.558594 C 38.761719 35.351563 37.964844 37.363281 37.441406 37.796875 C 37.128906 38.058594 36.140625 38.339844 35.636719 38.398438 C 34.640625 38.511719 34.484375 38.535156 33.820313 38.980469 Z M 105.144531 13.546875 C 105.382813 13.191406 106.105469 12.632813 106.71875 12.632813 C 107.027344 12.632813 107.296875 13.484375 107.046875 13.882813 C 107.046875 14.703125 106.226563 16.957031 105.992188 17.722656 C 105.601563 19.015625 105.292969 20.21875 104.867188 21.496094 C 104.523438 22.519531 102.578125 28.4375 102.578125 29.089844 L 102.578125 29.339844 C 102.578125 29.621094 102.726563 29.921875 102.992188 29.921875 L 104.730469 29.921875 C 105.613281 29.921875 105.722656 28.320313 106.03125 27.570313 C 106.332031 26.828125 106.722656 25.503906 107.078125 24.882813 C 107.53125 24.097656 107.867188 23.207031 108.316406 22.386719 C 108.757813 21.589844 109.296875 20.765625 109.667969 20.003906 C 110.3125 18.683594 111.808594 16.703125 112.734375 15.605469 C 113.214844 15.035156 113.957031 14.089844 114.527344 13.664063 C 114.949219 13.351563 116.21875 12.21875 116.8125 12.21875 L 117.308594 12.21875 C 117.734375 12.21875 118.21875 12.90625 118.21875 13.464844 L 118.21875 14.464844 C 118.21875 15.390625 117.144531 17.492188 117.144531 18.367188 C 116.957031 18.644531 113.832031 28.84375 113.832031 29.257813 L 113.832031 29.507813 C 113.832031 29.777344 114.132813 29.921875 114.410156 29.921875 L 115.820313 29.921875 C 116.933594 29.921875 117.019531 28.582031 117.289063 27.660156 C 117.5625 26.742188 118.078125 25.800781 118.363281 25 C 118.804688 23.765625 120.195313 21.128906 120.867188 20.03125 C 121.863281 18.394531 122.761719 17.109375 123.894531 15.59375 C 124.421875 14.886719 125.058594 14.253906 125.683594 13.652344 C 126.003906 13.34375 127.515625 12.21875 127.980469 12.21875 L 128.976563 12.21875 C 129.261719 12.21875 129.804688 12.730469 129.804688 13.132813 L 129.804688 13.964844 C 129.804688 15.496094 127.898438 19.453125 127.472656 21.097656 C 126.917969 23.214844 125.335938 25.917969 125.335938 28.507813 L 125.335938 29.007813 C 125.335938 29.792969 125.960938 30.421875 126.742188 30.421875 L 127.320313 30.421875 C 129.179688 30.421875 133.363281 26.21875 133.855469 24.851563 C 133.984375 24.664063 134.355469 23.96875 134.355469 23.6875 C 134.355469 23.492188 134.21875 23.355469 134.023438 23.355469 C 133.445313 23.355469 133.453125 24.042969 133.03125 24.351563 C 132.851563 25.03125 130.164063 28.09375 129.308594 28.09375 L 128.976563 28.09375 C 128.691406 28.09375 128.480469 27.628906 128.480469 27.34375 L 128.480469 27.261719 C 128.480469 26.570313 131.214844 19.300781 131.648438 18.230469 C 132.589844 15.917969 134.625 10.140625 130.300781 10.140625 C 128.234375 10.140625 126.523438 11.660156 125.285156 12.585938 C 123.921875 13.601563 122.945313 15.453125 121.859375 16.707031 L 119.265625 21.101563 L 120.699219 16.625 C 120.71875 15.773438 121.113281 15.058594 121.113281 14.046875 L 121.113281 12.964844 C 121.113281 12.484375 120.652344 11.316406 120.421875 11.003906 C 120.078125 10.535156 119.320313 10.140625 118.550781 10.140625 C 115.402344 10.140625 111.984375 14.804688 110.605469 16.871094 L 108.042969 20.945313 L 109.777344 15.378906 L 110.273438 12.21875 C 110.425781 11.332031 109.980469 10.140625 109.117188 10.140625 C 107.582031 10.140625 105.597656 11.757813 104.75 12.570313 C 104.160156 13.136719 101.753906 15.632813 101.753906 16.457031 C 101.753906 16.664063 101.980469 16.789063 102.085938 16.789063 C 102.433594 16.789063 104.414063 14.042969 105.144531 13.546875 Z M 66.253906 13.796875 L 67.660156 12.632813 C 67.742188 12.5625 67.808594 12.46875 67.992188 12.46875 C 68.425781 12.46875 68.570313 12.804688 68.570313 13.214844 C 68.570313 14.648438 66.890625 19.875 66.394531 21.253906 C 66.078125 22.132813 64.019531 28.660156 64.019531 29.175781 L 64.019531 29.507813 C 64.019531 29.71875 64.363281 29.921875 64.515625 29.921875 L 65.839844 29.921875 C 66.964844 29.921875 67.109375 28.890625 67.363281 27.960938 C 67.574219 27.179688 67.96875 26.089844 68.296875 25.40625 C 69.058594 23.808594 69.800781 22.296875 70.613281 20.753906 C 71.402344 19.257813 75.171875 12.800781 76.679688 12.800781 L 76.929688 12.800781 C 77.03125 13.082031 77.191406 13.097656 77.253906 13.472656 C 77.324219 13.894531 77.308594 13.894531 77.480469 14.242188 C 77.730469 14.761719 78.105469 14.960938 78.832031 14.960938 C 79.847656 14.960938 80.917969 13.640625 80.839844 12.632813 L 80.734375 11.46875 C 80.269531 10.773438 79.933594 10.140625 78.75 10.140625 C 75.707031 10.140625 73.253906 14.722656 71.882813 16.707031 L 69.601563 20.800781 L 69.515625 20.765625 L 70.972656 16.042969 C 71.144531 15.296875 71.808594 13.5625 71.703125 12.65625 C 71.566406 11.484375 71.289063 10.140625 69.976563 10.140625 C 68.734375 10.140625 66.808594 11.789063 66.109375 12.488281 C 65.644531 12.953125 63.523438 15.503906 63.523438 16.125 C 63.523438 16.347656 63.5625 16.355469 63.605469 16.539063 L 63.9375 16.539063 C 64.25 16.539063 65.652344 14.203125 66.253906 13.796875 Z M 138.738281 31.917969 L 138.738281 32.082031 C 138.738281 32.304688 138.859375 32.328125 138.988281 32.414063 C 139.671875 32.359375 143.347656 30.480469 144.175781 30.0625 C 145.136719 29.582031 148.667969 28.09375 148.667969 27.011719 L 148.667969 26.765625 C 148.667969 26.316406 148.222656 25.765625 147.757813 25.765625 L 147.261719 25.765625 C 146.621094 25.765625 143.445313 28.21875 142.898438 28.695313 C 142.398438 29.132813 138.738281 31.601563 138.738281 31.917969 Z M 152.972656 52.363281 L 152.972656 51.863281 C 152.109375 51.449219 150.15625 52.453125 150.15625 50.535156 L 150.15625 37.320313 C 150.15625 36.667969 150.480469 35.242188 149.828125 35.242188 L 144.28125 35.242188 C 144.09375 35.242188 144.035156 35.300781 144.035156 35.492188 C 144.035156 36.46875 145.484375 36 146.320313 36.351563 C 147.175781 36.710938 147.179688 37.507813 147.179688 38.648438 L 147.179688 49.289063 C 147.179688 51.277344 144.257813 52.863281 142.132813 52.863281 L 141.71875 52.863281 C 140.019531 52.863281 138.519531 52.09375 137.769531 51.09375 C 137.046875 50.136719 136.835938 47.917969 136.835938 46.214844 L 136.835938 36.902344 C 136.835938 36.390625 137.027344 35.242188 136.339844 35.242188 L 130.960938 35.242188 C 130.824219 35.242188 130.714844 35.289063 130.714844 35.40625 C 130.714844 35.890625 130.925781 35.964844 131.210938 36.15625 C 131.875 36.15625 132.457031 36.152344 132.941406 36.328125 C 133.582031 36.5625 133.554688 36.949219 133.855469 37.402344 C 133.855469 39.316406 133.855469 41.226563 133.855469 43.136719 C 133.855469 44.75 133.699219 47.375 133.863281 48.867188 C 134.054688 50.601563 134.675781 51.816406 135.65625 52.800781 C 136.511719 53.660156 137.914063 54.691406 139.566406 54.691406 L 140.726563 54.691406 C 143.839844 54.691406 146.101563 51.71875 146.929688 51.699219 L 146.929688 51.949219 L 147.097656 51.949219 L 147.097656 54.855469 L 147.34375 54.855469 C 147.351563 54.855469 149.238281 53.738281 149.496094 53.609375 C 150.070313 53.320313 151.660156 52.964844 152.089844 52.769531 Z M 116.230469 38.152344 L 116.230469 38.316406 C 116.230469 38.800781 117.089844 38.617188 117.558594 38.648438 C 118.257813 38.695313 118.3125 38.878906 118.714844 39.148438 C 118.714844 39.777344 118.964844 40.125 118.964844 40.726563 L 118.984375 50.785156 L 118.878906 52.113281 C 118.488281 52.699219 118.425781 52.996094 117.527344 53.164063 C 116.71875 53.316406 115.820313 53.078125 115.820313 53.941406 C 115.820313 54.136719 116.039063 54.359375 116.230469 54.359375 L 116.976563 54.296875 L 123.84375 54.359375 L 124.753906 54.359375 C 124.949219 54.359375 125.085938 54.21875 125.085938 54.027344 L 125.085938 53.859375 C 125.085938 53.636719 125.046875 53.628906 125.003906 53.445313 C 123.332031 53.050781 121.941406 53.378906 121.941406 51.199219 L 121.941406 43.136719 C 121.941406 41.777344 122.058594 40.117188 122.585938 39.296875 C 122.96875 38.703125 124.113281 37.152344 124.921875 37.152344 L 125.167969 37.152344 C 126.074219 37.152344 126.597656 38.816406 127.570313 38.816406 L 128.066406 38.816406 C 128.785156 38.816406 129.636719 38.175781 129.636719 37.484375 L 129.636719 36.902344 C 129.636719 35.625 128.429688 34.910156 127.15625 34.910156 C 124.335938 34.910156 122.8125 38.25 122.023438 38.316406 C 121.902344 37.785156 121.941406 37.140625 121.941406 36.488281 C 121.941406 36.054688 122.117188 34.742188 121.695313 34.742188 L 121.527344 34.742188 C 121.015625 34.742188 120.652344 35.398438 120.320313 35.691406 C 119.878906 36.078125 119.53125 36.269531 119.046875 36.574219 C 118.578125 36.867188 118.210938 37.101563 117.640625 37.320313 C 117.222656 37.480469 116.230469 37.644531 116.230469 38.152344 Z M 98.277344 39.230469 C 98.632813 38.558594 99.71875 37.011719 100.429688 36.820313 C 101.035156 36.289063 102.609375 35.574219 103.738281 35.574219 L 104.566406 35.574219 C 107.03125 35.574219 108.855469 37.078125 109.101563 39.25 C 109.359375 41.53125 105.253906 41.390625 103.078125 41.390625 L 98.609375 41.390625 L 97.863281 41.300781 C 97.789063 41.023438 97.699219 41.089844 97.699219 40.976563 C 97.699219 40.539063 98.082031 39.457031 98.277344 39.230469 Z M 112.179688 50.867188 C 112.273438 50.515625 112.34375 50.722656 112.34375 50.453125 L 112.34375 50.285156 C 112.34375 50.089844 112.207031 49.953125 112.011719 49.953125 L 111.929688 49.953125 C 111.605469 49.953125 111.238281 50.457031 111.019531 50.617188 C 109.671875 51.792969 108.253906 52.695313 105.722656 52.695313 L 105.476563 52.695313 C 100.515625 52.695313 97.367188 48.667969 97.367188 43.636719 C 97.367188 42.09375 98.859375 42.554688 100.429688 42.554688 C 101.835938 42.554688 103.242188 42.554688 104.648438 42.554688 C 106.054688 42.554688 107.460938 42.554688 108.867188 42.554688 C 109.746094 42.554688 112.59375 42.878906 112.59375 42.058594 L 112.59375 41.726563 C 112.59375 37.578125 109.359375 34.742188 105.144531 34.742188 L 104.648438 34.742188 C 102.851563 34.742188 102.257813 34.972656 100.875 35.355469 C 99.683594 35.6875 98.914063 36.355469 98.027344 36.902344 C 97.160156 37.4375 96.390625 38.222656 95.773438 39.042969 C 95.421875 39.503906 95.179688 39.871094 94.933594 40.445313 C 94.792969 40.773438 94.417969 41.890625 94.324219 42.058594 L 94.058594 44.300781 L 94.058594 44.964844 C 94.058594 50.007813 98.332031 54.691406 103.242188 54.691406 L 104.730469 54.691406 C 106.386719 54.691406 108.003906 54.007813 109.117188 53.445313 C 109.539063 53.230469 110.363281 52.585938 110.75 52.257813 C 111.101563 51.960938 111.964844 51.007813 112.179688 50.867188 Z M 74.03125 40.726563 C 74.03125 38.632813 76.746094 36.65625 78.914063 36.65625 L 80.15625 36.65625 C 81.769531 36.65625 83.414063 37.683594 84.308594 38.46875 C 84.953125 39.039063 85.195313 39.351563 85.683594 40.078125 C 86.132813 40.75 86.277344 41.558594 86.609375 42.058594 L 87.101563 45.121094 C 87.128906 45.816406 86.550781 48.230469 86.335938 48.679688 C 85.886719 49.617188 85.4375 50.5625 84.769531 51.265625 C 84.132813 51.933594 83.355469 52.691406 82.421875 53.0625 C 81.648438 53.367188 80.222656 54.015625 79.082031 53.859375 L 77.511719 53.664063 C 76.640625 53.109375 75.910156 53.285156 75.046875 52.257813 C 74.59375 51.71875 74.03125 50.414063 74.03125 49.453125 Z M 68.15625 64 L 77.011719 64 C 77.066406 63.894531 77.175781 63.726563 77.175781 63.582031 C 77.175781 62.757813 76.066406 63.039063 75.351563 62.839844 C 74.78125 62.679688 74.03125 62.179688 74.03125 61.507813 L 74.03125 53.941406 C 74.03125 53.78125 74.179688 53.609375 74.28125 53.609375 C 75.570313 53.609375 77.21875 54.691406 79.328125 54.691406 L 80.15625 54.691406 C 85.582031 54.691406 90.335938 50.328125 90.335938 44.882813 L 90.335938 44.21875 C 90.335938 41.261719 89.144531 39.574219 87.882813 37.867188 C 87.058594 36.746094 84.003906 34.742188 82.140625 34.742188 L 80.984375 34.742188 C 79.457031 34.742188 78.109375 35.1875 77.066406 35.710938 C 76.460938 36.015625 74.1875 37.527344 74.03125 37.570313 L 74.03125 34.992188 C 74.03125 34.800781 73.976563 34.742188 73.785156 34.742188 L 73.371094 34.742188 C 73.15625 34.742188 72.570313 35.496094 72.28125 35.726563 C 71.839844 36.074219 71.519531 36.324219 71.039063 36.640625 C 70.601563 36.925781 70.136719 37.152344 69.613281 37.371094 C 69.167969 37.554688 68.242188 37.621094 68.242188 38.152344 L 68.242188 38.484375 C 69.507813 38.78125 70.589844 38.378906 70.871094 39.664063 C 71.105469 40.726563 70.972656 42.179688 70.972656 43.386719 C 70.972656 45.9375 70.972656 48.484375 70.972656 51.035156 C 70.972656 53.582031 70.972656 56.132813 70.972656 58.679688 C 70.972656 62.761719 71.535156 62.320313 67.910156 63.167969 L 67.910156 63.667969 C 67.910156 63.898438 68.007813 63.871094 68.15625 64 "/>
</g>
</svg>
