<?xml version="1.0" encoding="UTF-8"?>
<svg xmlns="http://www.w3.org/2000/svg" xmlns:xlink="http://www.w3.org/1999/xlink" width="439.49pt" height="317.3pt" viewBox="0 0 439.49 317.3" version="1.1">
<defs>
<clipPath id="clip1">
  <path d="M 0 290 L 439.488281 290 L 439.488281 317.300781 L 0 317.300781 Z M 0 290 "/>
</clipPath>
<clipPath id="clip2">
  <path d="M 0 225 L 439.488281 225 L 439.488281 287 L 0 287 Z M 0 225 "/>
</clipPath>
<clipPath id="clip3">
  <path d="M 0 287 L 439.488281 287 L 439.488281 291 L 0 291 Z M 0 287 "/>
</clipPath>
<clipPath id="clip4">
  <path d="M 330 223 L 401 223 L 401 294 L 330 294 Z M 330 223 "/>
</clipPath>
<clipPath id="clip5">
  <path d="M 347.046875 232.054688 C 331.242188 249.613281 322.242188 268.902344 341.988281 285.070313 C 360.765625 300.449219 378.351563 292.058594 394.152344 274.5 C 409.957031 256.941406 412.222656 233.203125 399.214844 221.480469 C 394.382813 217.128906 388.125 215.046875 381.355469 215.046875 C 369.902344 215.046875 356.980469 221.015625 347.046875 232.054688 "/>
</clipPath>
<clipPath id="clip6">
  <path d="M 330 227 L 397 227 L 397 294 L 330 294 Z M 330 227 "/>
</clipPath>
<clipPath id="clip7">
  <path d="M 347.046875 232.054688 C 331.242188 249.613281 322.242188 268.902344 341.988281 285.070313 C 360.765625 300.449219 378.351563 292.058594 394.152344 274.5 C 409.957031 256.941406 412.222656 233.203125 399.214844 221.480469 C 394.382813 217.128906 388.125 215.046875 381.355469 215.046875 C 369.902344 215.046875 356.980469 221.015625 347.046875 232.054688 "/>
</clipPath>
<clipPath id="clip8">
  <path d="M 330 231 L 391 231 L 391 294 L 330 294 Z M 330 231 "/>
</clipPath>
<clipPath id="clip9">
  <path d="M 347.046875 232.054688 C 331.242188 249.613281 322.242188 268.902344 341.988281 285.070313 C 360.765625 300.449219 378.351563 292.058594 394.152344 274.5 C 409.957031 256.941406 412.222656 233.203125 399.214844 221.480469 C 394.382813 217.128906 388.125 215.046875 381.355469 215.046875 C 369.902344 215.046875 356.980469 221.015625 347.046875 232.054688 "/>
</clipPath>
<clipPath id="clip10">
  <path d="M 330 237 L 385 237 L 385 294 L 330 294 Z M 330 237 "/>
</clipPath>
<clipPath id="clip11">
  <path d="M 347.046875 232.054688 C 331.242188 249.613281 322.242188 268.902344 341.988281 285.070313 C 360.765625 300.449219 378.351563 292.058594 394.152344 274.5 C 409.957031 256.941406 412.222656 233.203125 399.214844 221.480469 C 394.382813 217.128906 388.125 215.046875 381.355469 215.046875 C 369.902344 215.046875 356.980469 221.015625 347.046875 232.054688 "/>
</clipPath>
<clipPath id="clip12">
  <path d="M 330 241 L 380 241 L 380 294 L 330 294 Z M 330 241 "/>
</clipPath>
<clipPath id="clip13">
  <path d="M 347.046875 232.054688 C 331.242188 249.613281 322.242188 268.902344 341.988281 285.070313 C 360.765625 300.449219 378.351563 292.058594 394.152344 274.5 C 409.957031 256.941406 412.222656 233.203125 399.214844 221.480469 C 394.382813 217.128906 388.125 215.046875 381.355469 215.046875 C 369.902344 215.046875 356.980469 221.015625 347.046875 232.054688 "/>
</clipPath>
<clipPath id="clip14">
  <path d="M 330 247 L 376 247 L 376 294 L 330 294 Z M 330 247 "/>
</clipPath>
<clipPath id="clip15">
  <path d="M 347.046875 232.054688 C 331.242188 249.613281 322.242188 268.902344 341.988281 285.070313 C 360.765625 300.449219 378.351563 292.058594 394.152344 274.5 C 409.957031 256.941406 412.222656 233.203125 399.214844 221.480469 C 394.382813 217.128906 388.125 215.046875 381.355469 215.046875 C 369.902344 215.046875 356.980469 221.015625 347.046875 232.054688 "/>
</clipPath>
<clipPath id="clip16">
  <path d="M 330 255 L 373 255 L 373 294 L 330 294 Z M 330 255 "/>
</clipPath>
<clipPath id="clip17">
  <path d="M 347.046875 232.054688 C 331.242188 249.613281 322.242188 268.902344 341.988281 285.070313 C 360.765625 300.449219 378.351563 292.058594 394.152344 274.5 C 409.957031 256.941406 412.222656 233.203125 399.214844 221.480469 C 394.382813 217.128906 388.125 215.046875 381.355469 215.046875 C 369.902344 215.046875 356.980469 221.015625 347.046875 232.054688 "/>
</clipPath>
<clipPath id="clip18">
  <path d="M 330 216 L 408 216 L 408 294 L 330 294 Z M 330 216 "/>
</clipPath>
<clipPath id="clip19">
  <path d="M 347.046875 232.054688 C 331.242188 249.613281 322.242188 268.902344 341.988281 285.070313 C 360.765625 300.449219 378.351563 292.058594 394.152344 274.5 C 409.957031 256.941406 412.222656 233.203125 399.214844 221.480469 C 394.382813 217.128906 388.125 215.046875 381.355469 215.046875 C 369.902344 215.046875 356.980469 221.015625 347.046875 232.054688 "/>
</clipPath>
<clipPath id="clip20">
  <path d="M 333 215 L 408 215 L 408 288 L 333 288 Z M 333 215 "/>
</clipPath>
<clipPath id="clip21">
  <path d="M 347.046875 232.054688 C 331.242188 249.613281 322.242188 268.902344 341.988281 285.070313 C 360.765625 300.449219 378.351563 292.058594 394.152344 274.5 C 409.957031 256.941406 412.222656 233.203125 399.214844 221.480469 C 394.382813 217.128906 388.125 215.046875 381.355469 215.046875 C 369.902344 215.046875 356.980469 221.015625 347.046875 232.054688 "/>
</clipPath>
<clipPath id="clip22">
  <path d="M 339 215 L 408 215 L 408 278 L 339 278 Z M 339 215 "/>
</clipPath>
<clipPath id="clip23">
  <path d="M 347.046875 232.054688 C 331.242188 249.613281 322.242188 268.902344 341.988281 285.070313 C 360.765625 300.449219 378.351563 292.058594 394.152344 274.5 C 409.957031 256.941406 412.222656 233.203125 399.214844 221.480469 C 394.382813 217.128906 388.125 215.046875 381.355469 215.046875 C 369.902344 215.046875 356.980469 221.015625 347.046875 232.054688 "/>
</clipPath>
<clipPath id="clip24">
  <path d="M 117 72 L 189 72 L 189 143 L 117 143 Z M 117 72 "/>
</clipPath>
<clipPath id="clip25">
  <path d="M 134.183594 81.523438 C 118.382813 99.082031 109.378906 118.371094 129.121094 134.539063 C 147.90625 149.917969 165.488281 141.527344 181.289063 123.96875 C 197.09375 106.410156 199.359375 82.671875 186.351563 70.949219 C 181.519531 66.597656 175.261719 64.511719 168.492188 64.511719 C 157.035156 64.515625 144.117188 70.484375 134.183594 81.523438 "/>
</clipPath>
<clipPath id="clip26">
  <path d="M 117 76 L 184 76 L 184 143 L 117 143 Z M 117 76 "/>
</clipPath>
<clipPath id="clip27">
  <path d="M 134.183594 81.523438 C 118.382813 99.082031 109.378906 118.371094 129.121094 134.539063 C 147.90625 149.917969 165.488281 141.527344 181.289063 123.96875 C 197.09375 106.410156 199.359375 82.671875 186.351563 70.949219 C 181.519531 66.597656 175.261719 64.511719 168.492188 64.511719 C 157.035156 64.515625 144.117188 70.484375 134.183594 81.523438 "/>
</clipPath>
<clipPath id="clip28">
  <path d="M 117 81 L 178 81 L 178 143 L 117 143 Z M 117 81 "/>
</clipPath>
<clipPath id="clip29">
  <path d="M 134.183594 81.523438 C 118.382813 99.082031 109.378906 118.371094 129.121094 134.539063 C 147.90625 149.917969 165.488281 141.527344 181.289063 123.96875 C 197.09375 106.410156 199.359375 82.671875 186.351563 70.949219 C 181.519531 66.597656 175.261719 64.511719 168.492188 64.511719 C 157.035156 64.515625 144.117188 70.484375 134.183594 81.523438 "/>
</clipPath>
<clipPath id="clip30">
  <path d="M 117 87 L 172 87 L 172 143 L 117 143 Z M 117 87 "/>
</clipPath>
<clipPath id="clip31">
  <path d="M 134.183594 81.523438 C 118.382813 99.082031 109.378906 118.371094 129.121094 134.539063 C 147.90625 149.917969 165.488281 141.527344 181.289063 123.96875 C 197.09375 106.410156 199.359375 82.671875 186.351563 70.949219 C 181.519531 66.597656 175.261719 64.511719 168.492188 64.511719 C 157.035156 64.515625 144.117188 70.484375 134.183594 81.523438 "/>
</clipPath>
<clipPath id="clip32">
  <path d="M 117 91 L 167 91 L 167 143 L 117 143 Z M 117 91 "/>
</clipPath>
<clipPath id="clip33">
  <path d="M 134.183594 81.523438 C 118.382813 99.082031 109.378906 118.371094 129.121094 134.539063 C 147.90625 149.917969 165.488281 141.527344 181.289063 123.96875 C 197.09375 106.410156 199.359375 82.671875 186.351563 70.949219 C 181.519531 66.597656 175.261719 64.511719 168.492188 64.511719 C 157.035156 64.515625 144.117188 70.484375 134.183594 81.523438 "/>
</clipPath>
<clipPath id="clip34">
  <path d="M 117 97 L 163 97 L 163 143 L 117 143 Z M 117 97 "/>
</clipPath>
<clipPath id="clip35">
  <path d="M 134.183594 81.523438 C 118.382813 99.082031 109.378906 118.371094 129.121094 134.539063 C 147.90625 149.917969 165.488281 141.527344 181.289063 123.96875 C 197.09375 106.410156 199.359375 82.671875 186.351563 70.949219 C 181.519531 66.597656 175.261719 64.511719 168.492188 64.511719 C 157.035156 64.515625 144.117188 70.484375 134.183594 81.523438 "/>
</clipPath>
<clipPath id="clip36">
  <path d="M 117 104 L 160 104 L 160 143 L 117 143 Z M 117 104 "/>
</clipPath>
<clipPath id="clip37">
  <path d="M 134.183594 81.523438 C 118.382813 99.082031 109.378906 118.371094 129.121094 134.539063 C 147.90625 149.917969 165.488281 141.527344 181.289063 123.96875 C 197.09375 106.410156 199.359375 82.671875 186.351563 70.949219 C 181.519531 66.597656 175.261719 64.511719 168.492188 64.511719 C 157.035156 64.515625 144.117188 70.484375 134.183594 81.523438 "/>
</clipPath>
<clipPath id="clip38">
  <path d="M 117 66 L 195 66 L 195 143 L 117 143 Z M 117 66 "/>
</clipPath>
<clipPath id="clip39">
  <path d="M 134.183594 81.523438 C 118.382813 99.082031 109.378906 118.371094 129.121094 134.539063 C 147.90625 149.917969 165.488281 141.527344 181.289063 123.96875 C 197.09375 106.410156 199.359375 82.671875 186.351563 70.949219 C 181.519531 66.597656 175.261719 64.511719 168.492188 64.511719 C 157.035156 64.515625 144.117188 70.484375 134.183594 81.523438 "/>
</clipPath>
<clipPath id="clip40">
  <path d="M 120 64 L 195 64 L 195 138 L 120 138 Z M 120 64 "/>
</clipPath>
<clipPath id="clip41">
  <path d="M 134.183594 81.523438 C 118.382813 99.082031 109.378906 118.371094 129.121094 134.539063 C 147.90625 149.917969 165.488281 141.527344 181.289063 123.96875 C 197.09375 106.410156 199.359375 82.671875 186.351563 70.949219 C 181.519531 66.597656 175.261719 64.511719 168.492188 64.511719 C 157.035156 64.515625 144.117188 70.484375 134.183594 81.523438 "/>
</clipPath>
<clipPath id="clip42">
  <path d="M 126 64 L 195 64 L 195 127 L 126 127 Z M 126 64 "/>
</clipPath>
<clipPath id="clip43">
  <path d="M 134.183594 81.523438 C 118.382813 99.082031 109.378906 118.371094 129.121094 134.539063 C 147.90625 149.917969 165.488281 141.527344 181.289063 123.96875 C 197.09375 106.410156 199.359375 82.671875 186.351563 70.949219 C 181.519531 66.597656 175.261719 64.511719 168.492188 64.511719 C 157.035156 64.515625 144.117188 70.484375 134.183594 81.523438 "/>
</clipPath>
</defs>
<g id="surface1">
<g clip-path="url(#clip1)" clip-rule="nonzero">
<path style=" stroke:none;fill-rule:nonzero;fill:rgb(0%,38.398743%,49.398804%);fill-opacity:1;" d="M 0 317.300781 L 439.425781 317.300781 L 439.425781 290.851563 L 0 290.851563 Z M 0 317.300781 "/>
</g>
<g clip-path="url(#clip2)" clip-rule="nonzero">
<path style=" stroke:none;fill-rule:nonzero;fill:rgb(65.499878%,66.299438%,67.498779%);fill-opacity:1;" d="M 0.0351563 286.957031 L 439.460938 286.957031 L 439.460938 225.945313 L 0.0351563 225.945313 Z M 0.0351563 286.957031 "/>
</g>
<path style=" stroke:none;fill-rule:nonzero;fill:rgb(100%,100%,100%);fill-opacity:1;" d="M 13.628906 308.644531 L 15.734375 308.644531 L 15.734375 304.617188 L 17.953125 304.617188 C 19.542969 304.617188 19.628906 305.164063 19.628906 306.566406 C 19.628906 307.625 19.714844 308.15625 19.859375 308.644531 L 22.238281 308.644531 L 22.238281 308.371094 C 21.777344 308.199219 21.777344 307.828125 21.777344 306.324219 C 21.777344 304.402344 21.320313 304.085938 20.476563 303.714844 C 21.492188 303.371094 22.066406 302.398438 22.066406 301.265625 C 22.066406 300.378906 21.566406 298.359375 18.828125 298.359375 L 13.628906 298.359375 Z M 15.734375 302.886719 L 15.734375 300.132813 L 18.414063 300.132813 C 19.671875 300.132813 19.917969 300.9375 19.917969 301.480469 C 19.917969 302.496094 19.371094 302.886719 18.253906 302.886719 "/>
<path style=" stroke:none;fill-rule:nonzero;fill:rgb(100%,100%,100%);fill-opacity:1;" d="M 31.492188 300.175781 L 26.03125 300.175781 L 26.03125 302.339844 L 31.046875 302.339844 L 31.046875 304.160156 L 26.03125 304.160156 L 26.03125 306.824219 L 31.734375 306.824219 L 31.734375 308.644531 L 23.925781 308.644531 L 23.925781 298.359375 L 31.492188 298.359375 "/>
<path style=" stroke:none;fill-rule:nonzero;fill:rgb(100%,100%,100%);fill-opacity:1;" d="M 38.265625 303.097656 L 42.566406 303.097656 L 42.566406 308.644531 L 41.132813 308.644531 L 40.917969 307.355469 C 40.371094 307.984375 39.585938 308.914063 37.707031 308.914063 C 35.230469 308.914063 32.980469 307.140625 32.980469 303.527344 C 32.980469 300.71875 34.542969 298.070313 38.007813 298.085938 C 41.160156 298.085938 42.40625 300.132813 42.523438 301.550781 L 40.371094 301.550781 C 40.371094 301.152344 39.640625 299.863281 38.125 299.863281 C 36.589844 299.863281 35.171875 300.921875 35.171875 303.558594 C 35.171875 306.367188 36.707031 307.09375 38.167969 307.09375 C 38.640625 307.09375 40.214844 306.910156 40.660156 304.832031 L 38.265625 304.832031 "/>
<path style=" stroke:none;fill-rule:nonzero;fill:rgb(100%,100%,100%);fill-opacity:1;" d="M 44.371094 308.644531 L 46.519531 308.644531 L 46.519531 298.359375 L 44.371094 298.359375 Z M 44.371094 308.644531 "/>
<path style=" stroke:none;fill-rule:nonzero;fill:rgb(100%,100%,100%);fill-opacity:1;" d="M 50.015625 305.476563 C 50.027344 306.050781 50.316406 307.140625 52.191406 307.140625 C 53.210938 307.140625 54.339844 306.894531 54.339844 305.804688 C 54.339844 305.003906 53.566406 304.789063 52.476563 304.53125 L 51.375 304.273438 C 49.714844 303.886719 48.109375 303.515625 48.109375 301.25 C 48.109375 300.105469 48.726563 298.085938 52.0625 298.085938 C 55.214844 298.085938 56.058594 300.148438 56.074219 301.410156 L 54.011719 301.410156 C 53.953125 300.949219 53.78125 299.863281 51.90625 299.863281 C 51.089844 299.863281 50.113281 300.164063 50.113281 301.09375 C 50.113281 301.894531 50.773438 302.066406 51.203125 302.167969 L 53.710938 302.785156 C 55.113281 303.128906 56.402344 303.703125 56.402344 305.546875 C 56.402344 308.644531 53.253906 308.914063 52.347656 308.914063 C 48.597656 308.914063 47.953125 306.753906 47.953125 305.476563 "/>
<path style=" stroke:none;fill-rule:nonzero;fill:rgb(100%,100%,100%);fill-opacity:1;" d="M 62.363281 308.644531 L 60.214844 308.644531 L 60.214844 300.175781 L 57.105469 300.175781 L 57.105469 298.359375 L 65.472656 298.359375 L 65.472656 300.175781 L 62.363281 300.175781 "/>
<path style=" stroke:none;fill-rule:nonzero;fill:rgb(100%,100%,100%);fill-opacity:1;" d="M 66.703125 308.644531 L 68.808594 308.644531 L 68.808594 304.617188 L 71.03125 304.617188 C 72.621094 304.617188 72.707031 305.164063 72.707031 306.566406 C 72.707031 307.625 72.792969 308.15625 72.933594 308.644531 L 75.3125 308.644531 L 75.3125 308.371094 C 74.855469 308.199219 74.855469 307.828125 74.855469 306.324219 C 74.855469 304.402344 74.394531 304.085938 73.550781 303.714844 C 74.566406 303.371094 75.140625 302.398438 75.140625 301.265625 C 75.140625 300.378906 74.640625 298.359375 71.902344 298.359375 L 66.703125 298.359375 Z M 68.808594 302.886719 L 68.808594 300.132813 L 71.488281 300.132813 C 72.75 300.132813 72.992188 300.9375 72.992188 301.480469 C 72.992188 302.496094 72.449219 302.886719 71.332031 302.886719 "/>
<path style=" stroke:none;fill-rule:nonzero;fill:rgb(100%,100%,100%);fill-opacity:1;" d="M 76.257813 303.5 C 76.257813 308.328125 79.839844 308.917969 81.199219 308.917969 C 82.5625 308.917969 86.144531 308.328125 86.144531 303.5 C 86.144531 298.671875 82.5625 298.085938 81.199219 298.085938 C 79.839844 298.085938 76.257813 298.671875 76.257813 303.5 M 78.40625 303.5 C 78.40625 300.621094 80.039063 299.90625 81.199219 299.90625 C 82.359375 299.90625 83.992188 300.621094 83.992188 303.5 C 83.992188 306.378906 82.359375 307.097656 81.199219 307.097656 C 80.039063 307.097656 78.40625 306.378906 78.40625 303.5 "/>
<path style=" stroke:none;fill-rule:nonzero;fill:rgb(100%,100%,100%);fill-opacity:1;" d="M 98.03125 298.355469 L 100.039063 298.355469 L 100.039063 308.644531 L 97.890625 308.644531 L 93.695313 301.308594 L 93.664063 301.308594 L 93.664063 308.644531 L 91.65625 308.644531 L 91.65625 298.355469 L 93.921875 298.355469 L 98.003906 305.519531 L 98.03125 305.519531 "/>
<path style=" stroke:none;fill-rule:nonzero;fill:rgb(100%,100%,100%);fill-opacity:1;" d="M 104.234375 306.523438 L 108.03125 306.523438 L 108.691406 308.644531 L 111.027344 308.644531 L 107.402344 298.355469 L 104.925781 298.355469 L 101.257813 308.644531 L 103.519531 308.644531 Z M 106.128906 300.679688 L 106.15625 300.679688 L 107.429688 304.746094 L 104.808594 304.746094 Z M 106.128906 300.679688 "/>
<path style=" stroke:none;fill-rule:nonzero;fill:rgb(100%,100%,100%);fill-opacity:1;" d="M 118.347656 301.722656 C 118.175781 301.109375 117.847656 299.949219 116.070313 299.949219 C 115.039063 299.949219 113.519531 300.636719 113.519531 303.542969 C 113.519531 305.390625 114.25 307.054688 116.070313 307.054688 C 117.257813 307.054688 118.089844 306.378906 118.347656 305.121094 L 120.496094 305.121094 C 120.066406 307.355469 118.605469 308.914063 116.027344 308.914063 C 113.289063 308.914063 111.328125 307.066406 111.328125 303.515625 C 111.328125 299.917969 113.40625 298.085938 116.054688 298.085938 C 119.136719 298.085938 120.378906 300.203125 120.496094 301.722656 "/>
<path style=" stroke:none;fill-rule:nonzero;fill:rgb(100%,100%,100%);fill-opacity:1;" d="M 121.914063 308.644531 L 124.0625 308.644531 L 124.0625 298.359375 L 121.914063 298.359375 Z M 121.914063 308.644531 "/>
<path style=" stroke:none;fill-rule:nonzero;fill:rgb(100%,100%,100%);fill-opacity:1;" d="M 125.566406 303.5 C 125.566406 308.328125 129.148438 308.917969 130.507813 308.917969 C 131.871094 308.917969 135.453125 308.328125 135.453125 303.5 C 135.453125 298.671875 131.871094 298.085938 130.507813 298.085938 C 129.148438 298.085938 125.566406 298.671875 125.566406 303.5 M 127.714844 303.5 C 127.714844 300.621094 129.347656 299.90625 130.507813 299.90625 C 131.671875 299.90625 133.300781 300.621094 133.300781 303.5 C 133.300781 306.378906 131.671875 307.097656 130.507813 307.097656 C 129.347656 307.097656 127.714844 306.378906 127.714844 303.5 "/>
<path style=" stroke:none;fill-rule:nonzero;fill:rgb(100%,100%,100%);fill-opacity:1;" d="M 143.402344 298.355469 L 145.40625 298.355469 L 145.40625 308.644531 L 143.257813 308.644531 L 139.0625 301.308594 L 139.03125 301.308594 L 139.03125 308.644531 L 137.027344 308.644531 L 137.027344 298.355469 L 139.289063 298.355469 L 143.375 305.519531 L 143.402344 305.519531 "/>
<path style=" stroke:none;fill-rule:nonzero;fill:rgb(100%,100%,100%);fill-opacity:1;" d="M 149.605469 306.523438 L 153.402344 306.523438 L 154.058594 308.644531 L 156.394531 308.644531 L 152.769531 298.355469 L 150.292969 298.355469 L 146.625 308.644531 L 148.890625 308.644531 Z M 151.496094 300.679688 L 151.523438 300.679688 L 152.800781 304.746094 L 150.179688 304.746094 Z M 151.496094 300.679688 "/>
<path style=" stroke:none;fill-rule:nonzero;fill:rgb(100%,100%,100%);fill-opacity:1;" d="M 159.875 306.78125 L 164.988281 306.78125 L 164.988281 308.644531 L 157.726563 308.644531 L 157.726563 298.355469 L 159.875 298.355469 "/>
<path style=" stroke:none;fill-rule:nonzero;fill:rgb(100%,100%,100%);fill-opacity:1;" d="M 170.378906 308.644531 L 174.832031 308.644531 C 178.226563 308.644531 179.101563 305.460938 179.101563 303.257813 C 179.101563 301.308594 178.382813 298.359375 174.917969 298.359375 L 170.378906 298.359375 Z M 172.480469 300.132813 L 174.546875 300.132813 C 175.464844 300.132813 176.910156 300.378906 176.910156 303.414063 C 176.910156 305.105469 176.320313 306.867188 174.574219 306.867188 L 172.480469 306.867188 "/>
<path style=" stroke:none;fill-rule:nonzero;fill:rgb(100%,100%,100%);fill-opacity:1;" d="M 188.238281 300.175781 L 182.78125 300.175781 L 182.78125 302.339844 L 187.796875 302.339844 L 187.796875 304.160156 L 182.78125 304.160156 L 182.78125 306.824219 L 188.484375 306.824219 L 188.484375 308.644531 L 180.675781 308.644531 L 180.675781 298.359375 L 188.238281 298.359375 "/>
<path style=" stroke:none;fill-rule:nonzero;fill:rgb(100%,100%,100%);fill-opacity:1;" d="M 193.957031 308.644531 L 196.105469 308.644531 L 196.105469 298.359375 L 193.957031 298.359375 Z M 193.957031 308.644531 "/>
<path style=" stroke:none;fill-rule:nonzero;fill:rgb(100%,100%,100%);fill-opacity:1;" d="M 198.066406 308.644531 L 202.523438 308.644531 C 205.917969 308.644531 206.792969 305.460938 206.792969 303.257813 C 206.792969 301.308594 206.074219 298.359375 202.609375 298.359375 L 198.066406 298.359375 Z M 200.171875 300.132813 L 202.234375 300.132813 C 203.152344 300.132813 204.601563 300.378906 204.601563 303.414063 C 204.601563 305.105469 204.011719 306.867188 202.265625 306.867188 L 200.171875 306.867188 "/>
<path style=" stroke:none;fill-rule:nonzero;fill:rgb(100%,100%,100%);fill-opacity:1;" d="M 215.933594 300.175781 L 210.472656 300.175781 L 210.472656 302.339844 L 215.488281 302.339844 L 215.488281 304.160156 L 210.472656 304.160156 L 210.472656 306.824219 L 216.175781 306.824219 L 216.175781 308.644531 L 208.367188 308.644531 L 208.367188 298.359375 L 215.933594 298.359375 "/>
<path style=" stroke:none;fill-rule:nonzero;fill:rgb(100%,100%,100%);fill-opacity:1;" d="M 224.152344 298.355469 L 226.160156 298.355469 L 226.160156 308.644531 L 224.011719 308.644531 L 219.8125 301.308594 L 219.785156 301.308594 L 219.785156 308.644531 L 217.777344 308.644531 L 217.777344 298.355469 L 220.042969 298.355469 L 224.125 305.519531 L 224.152344 305.519531 "/>
<path style=" stroke:none;fill-rule:nonzero;fill:rgb(100%,100%,100%);fill-opacity:1;" d="M 232.550781 308.644531 L 230.402344 308.644531 L 230.402344 300.175781 L 227.292969 300.175781 L 227.292969 298.359375 L 235.65625 298.359375 L 235.65625 300.175781 L 232.550781 300.175781 "/>
<path style=" stroke:none;fill-rule:nonzero;fill:rgb(100%,100%,100%);fill-opacity:1;" d="M 236.71875 308.644531 L 238.867188 308.644531 L 238.867188 298.359375 L 236.71875 298.359375 Z M 236.71875 308.644531 "/>
<path style=" stroke:none;fill-rule:nonzero;fill:rgb(100%,100%,100%);fill-opacity:1;" d="M 242.976563 308.644531 L 240.828125 308.644531 L 240.828125 298.359375 L 248.148438 298.359375 L 248.148438 300.175781 L 242.976563 300.175781 L 242.976563 302.496094 L 247.503906 302.496094 L 247.503906 304.316406 L 242.976563 304.316406 "/>
<path style=" stroke:none;fill-rule:nonzero;fill:rgb(100%,100%,100%);fill-opacity:1;" d="M 249.367188 308.644531 L 251.515625 308.644531 L 251.515625 298.359375 L 249.367188 298.359375 Z M 249.367188 308.644531 "/>
<path style=" stroke:none;fill-rule:nonzero;fill:rgb(100%,100%,100%);fill-opacity:1;" d="M 260.039063 301.722656 C 259.867188 301.109375 259.539063 299.949219 257.761719 299.949219 C 256.730469 299.949219 255.210938 300.636719 255.210938 303.542969 C 255.210938 305.390625 255.941406 307.054688 257.761719 307.054688 C 258.949219 307.054688 259.78125 306.378906 260.039063 305.121094 L 262.1875 305.121094 C 261.757813 307.355469 260.296875 308.914063 257.71875 308.914063 C 254.980469 308.914063 253.019531 307.066406 253.019531 303.515625 C 253.019531 299.917969 255.097656 298.085938 257.746094 298.085938 C 260.828125 298.085938 262.074219 300.203125 262.1875 301.722656 "/>
<path style=" stroke:none;fill-rule:nonzero;fill:rgb(100%,100%,100%);fill-opacity:1;" d="M 265.957031 306.523438 L 269.753906 306.523438 L 270.410156 308.644531 L 272.746094 308.644531 L 269.121094 298.355469 L 266.644531 298.355469 L 262.976563 308.644531 L 265.238281 308.644531 Z M 267.847656 300.679688 L 267.875 300.679688 L 269.148438 304.746094 L 266.527344 304.746094 Z M 267.847656 300.679688 "/>
<path style=" stroke:none;fill-rule:nonzero;fill:rgb(100%,100%,100%);fill-opacity:1;" d="M 280.066406 301.722656 C 279.894531 301.109375 279.566406 299.949219 277.789063 299.949219 C 276.757813 299.949219 275.238281 300.636719 275.238281 303.542969 C 275.238281 305.390625 275.96875 307.054688 277.789063 307.054688 C 278.976563 307.054688 279.808594 306.378906 280.066406 305.121094 L 282.214844 305.121094 C 281.785156 307.355469 280.324219 308.914063 277.746094 308.914063 C 275.007813 308.914063 273.046875 307.066406 273.046875 303.515625 C 273.046875 299.917969 275.125 298.085938 277.773438 298.085938 C 280.855469 298.085938 282.101563 300.203125 282.214844 301.722656 "/>
<path style=" stroke:none;fill-rule:nonzero;fill:rgb(100%,100%,100%);fill-opacity:1;" d="M 283.632813 308.644531 L 285.78125 308.644531 L 285.78125 298.359375 L 283.632813 298.359375 Z M 283.632813 308.644531 "/>
<path style=" stroke:none;fill-rule:nonzero;fill:rgb(100%,100%,100%);fill-opacity:1;" d="M 294.949219 295.234375 L 292.742188 295.234375 L 291.398438 297.328125 L 292.84375 297.328125 Z M 287.285156 303.5 C 287.285156 308.328125 290.867188 308.917969 292.226563 308.917969 C 293.589844 308.917969 297.171875 308.328125 297.171875 303.5 C 297.171875 298.671875 293.589844 298.085938 292.226563 298.085938 C 290.867188 298.085938 287.285156 298.671875 287.285156 303.5 M 289.433594 303.5 C 289.433594 300.621094 291.066406 299.90625 292.226563 299.90625 C 293.390625 299.90625 295.019531 300.621094 295.019531 303.5 C 295.019531 306.378906 293.390625 307.09375 292.226563 307.09375 C 291.066406 307.09375 289.433594 306.378906 289.433594 303.5 "/>
<path style=" stroke:none;fill-rule:nonzero;fill:rgb(100%,100%,100%);fill-opacity:1;" d="M 305.121094 298.355469 L 307.128906 298.355469 L 307.128906 308.644531 L 304.976563 308.644531 L 300.78125 301.308594 L 300.753906 301.308594 L 300.753906 308.644531 L 298.746094 308.644531 L 298.746094 298.355469 L 301.011719 298.355469 L 305.09375 305.519531 L 305.121094 305.519531 "/>
<path style=" stroke:none;fill-rule:nonzero;fill:rgb(100%,100%,100%);fill-opacity:1;" d="M 320.136719 308.644531 L 317.984375 308.644531 L 317.984375 304.761719 L 314.433594 298.359375 L 316.96875 298.359375 L 319.105469 302.828125 L 321.136719 298.359375 L 323.574219 298.359375 L 320.136719 304.789063 "/>
<path style=" stroke:none;fill-rule:nonzero;fill:rgb(100%,100%,100%);fill-opacity:1;" d="M 336.320313 300.175781 L 330.863281 300.175781 L 330.863281 302.339844 L 335.878906 302.339844 L 335.878906 304.160156 L 330.863281 304.160156 L 330.863281 306.824219 L 336.566406 306.824219 L 336.566406 308.644531 L 328.757813 308.644531 L 328.757813 298.359375 L 336.320313 298.359375 "/>
<path style=" stroke:none;fill-rule:nonzero;fill:rgb(100%,100%,100%);fill-opacity:1;" d="M 339.804688 305.476563 C 339.816406 306.050781 340.105469 307.140625 341.980469 307.140625 C 342.996094 307.140625 344.128906 306.894531 344.128906 305.804688 C 344.128906 305.003906 343.355469 304.789063 342.269531 304.53125 L 341.164063 304.273438 C 339.503906 303.886719 337.898438 303.515625 337.898438 301.25 C 337.898438 300.105469 338.515625 298.085938 341.851563 298.085938 C 345.003906 298.085938 345.851563 300.148438 345.863281 301.410156 L 343.800781 301.410156 C 343.742188 300.949219 343.570313 299.863281 341.695313 299.863281 C 340.878906 299.863281 339.90625 300.164063 339.90625 301.09375 C 339.90625 301.894531 340.5625 302.066406 340.992188 302.167969 L 343.5 302.785156 C 344.90625 303.128906 346.191406 303.703125 346.191406 305.546875 C 346.191406 308.644531 343.039063 308.914063 342.140625 308.914063 C 338.386719 308.914063 337.742188 306.753906 337.742188 305.476563 "/>
<path style=" stroke:none;fill-rule:nonzero;fill:rgb(100%,100%,100%);fill-opacity:1;" d="M 352.152344 308.644531 L 350.003906 308.644531 L 350.003906 300.175781 L 346.894531 300.175781 L 346.894531 298.359375 L 355.261719 298.359375 L 355.261719 300.175781 L 352.152344 300.175781 "/>
<path style=" stroke:none;fill-rule:nonzero;fill:rgb(100%,100%,100%);fill-opacity:1;" d="M 357.382813 306.523438 L 361.175781 306.523438 L 361.835938 308.644531 L 364.171875 308.644531 L 360.546875 298.355469 L 358.070313 298.355469 L 354.402344 308.644531 L 356.664063 308.644531 Z M 359.273438 300.679688 L 359.300781 300.679688 L 360.574219 304.746094 L 357.953125 304.746094 Z M 359.273438 300.679688 "/>
<path style=" stroke:none;fill-rule:nonzero;fill:rgb(100%,100%,100%);fill-opacity:1;" d="M 365.503906 308.644531 L 369.960938 308.644531 C 373.355469 308.644531 374.226563 305.460938 374.226563 303.257813 C 374.226563 301.308594 373.511719 298.359375 370.046875 298.359375 L 365.503906 298.359375 Z M 367.609375 300.132813 L 369.671875 300.132813 C 370.589844 300.132813 372.035156 300.378906 372.035156 303.414063 C 372.035156 305.105469 371.449219 306.867188 369.699219 306.867188 L 367.609375 306.867188 "/>
<path style=" stroke:none;fill-rule:nonzero;fill:rgb(100%,100%,100%);fill-opacity:1;" d="M 375.34375 303.5 C 375.34375 308.328125 378.925781 308.917969 380.285156 308.917969 C 381.648438 308.917969 385.230469 308.328125 385.230469 303.5 C 385.230469 298.671875 381.648438 298.085938 380.285156 298.085938 C 378.925781 298.085938 375.34375 298.671875 375.34375 303.5 M 377.492188 303.5 C 377.492188 300.621094 379.128906 299.90625 380.285156 299.90625 C 381.449219 299.90625 383.082031 300.621094 383.082031 303.5 C 383.082031 306.378906 381.449219 307.097656 380.285156 307.097656 C 379.128906 307.097656 377.492188 306.378906 377.492188 303.5 "/>
<path style=" stroke:none;fill-rule:nonzero;fill:rgb(100%,100%,100%);fill-opacity:1;" d="M 397.40625 301.722656 C 397.234375 301.109375 396.90625 299.949219 395.128906 299.949219 C 394.097656 299.949219 392.578125 300.636719 392.578125 303.542969 C 392.578125 305.390625 393.308594 307.054688 395.128906 307.054688 C 396.316406 307.054688 397.148438 306.378906 397.40625 305.121094 L 399.554688 305.121094 C 399.125 307.355469 397.664063 308.914063 395.085938 308.914063 C 392.347656 308.914063 390.386719 307.066406 390.386719 303.515625 C 390.386719 299.917969 392.464844 298.085938 395.113281 298.085938 C 398.195313 298.085938 399.441406 300.203125 399.554688 301.722656 "/>
<path style=" stroke:none;fill-rule:nonzero;fill:rgb(100%,100%,100%);fill-opacity:1;" d="M 400.972656 308.644531 L 403.121094 308.644531 L 403.121094 298.359375 L 400.972656 298.359375 Z M 400.972656 308.644531 "/>
<path style=" stroke:none;fill-rule:nonzero;fill:rgb(100%,100%,100%);fill-opacity:1;" d="M 411.042969 298.355469 L 413.277344 298.355469 L 409.78125 308.644531 L 407.734375 308.644531 L 404.269531 298.355469 L 406.574219 298.355469 L 408.78125 306.152344 L 408.808594 306.152344 "/>
<path style=" stroke:none;fill-rule:nonzero;fill:rgb(100%,100%,100%);fill-opacity:1;" d="M 414.425781 308.644531 L 416.574219 308.644531 L 416.574219 298.359375 L 414.425781 298.359375 Z M 414.425781 308.644531 "/>
<path style=" stroke:none;fill-rule:nonzero;fill:rgb(100%,100%,100%);fill-opacity:1;" d="M 420.6875 306.78125 L 425.800781 306.78125 L 425.800781 308.644531 L 418.535156 308.644531 L 418.535156 298.355469 L 420.6875 298.355469 "/>
<path style=" stroke:none;fill-rule:nonzero;fill:rgb(100%,100%,100%);fill-opacity:1;" d="M 13.398438 275.617188 L 25.152344 275.617188 L 25.152344 265.664063 L 43.632813 265.664063 C 47.285156 265.664063 48.449219 266.988281 48.449219 271.011719 L 48.449219 275.617188 L 60.203125 275.617188 L 60.203125 269.105469 C 60.203125 262.804688 57.289063 261.269531 53.796875 260.636719 L 53.796875 260.527344 C 59.195313 259.257813 60.359375 256.238281 60.359375 251.105469 L 60.359375 248.667969 C 60.359375 241.785156 57.925781 237.285156 48.871094 237.285156 L 13.398438 237.285156 Z M 25.152344 246.816406 L 43.523438 246.816406 C 47.230469 246.816406 48.925781 247.453125 48.925781 250.839844 L 48.925781 252.109375 C 48.925781 254.863281 47.761719 256.136719 44.585938 256.136719 L 25.152344 256.136719 "/>
<path style=" stroke:none;fill-rule:nonzero;fill:rgb(100%,100%,100%);fill-opacity:1;" d="M 65.390625 237.285156 L 107.324219 237.285156 L 107.324219 246.179688 L 77.144531 246.179688 L 77.144531 252.324219 L 105.734375 252.324219 L 105.734375 260.265625 L 77.144531 260.265625 L 77.144531 266.40625 L 108.011719 266.40625 L 108.011719 275.617188 L 65.390625 275.617188 "/>
<path style=" stroke:none;fill-rule:nonzero;fill:rgb(100%,100%,100%);fill-opacity:1;" d="M 112.191406 237.285156 L 130.40625 237.285156 L 152.484375 265.136719 L 152.589844 265.136719 L 152.589844 237.285156 L 164.34375 237.285156 L 164.34375 275.617188 L 146.128906 275.617188 L 124.050781 247.769531 L 123.945313 247.769531 L 123.945313 275.617188 L 112.191406 275.617188 "/>
<path style=" stroke:none;fill-rule:nonzero;fill:rgb(100%,100%,100%);fill-opacity:1;" d="M 170.007813 275.617188 L 181.761719 275.617188 L 181.761719 237.285156 L 170.007813 237.285156 Z M 170.007813 275.617188 "/>
<path style=" stroke:none;fill-rule:nonzero;fill:rgb(100%,100%,100%);fill-opacity:1;" d="M 187.425781 237.285156 L 229.359375 237.285156 L 229.359375 246.179688 L 199.179688 246.179688 L 199.179688 252.324219 L 227.769531 252.324219 L 227.769531 260.265625 L 199.179688 260.265625 L 199.179688 266.40625 L 230.046875 266.40625 L 230.046875 275.617188 L 187.425781 275.617188 "/>
<path style=" stroke:none;fill-rule:nonzero;fill:rgb(100%,100%,100%);fill-opacity:1;" d="M 233.382813 250.734375 C 233.382813 239.507813 239.683594 236.863281 250.273438 236.863281 L 264.089844 236.863281 C 280.820313 236.863281 282.992188 240.464844 282.886719 251.316406 L 271.132813 251.316406 L 271.132813 250.257813 C 271.132813 247.503906 269.121094 246.710938 265.625 246.710938 L 252.8125 246.710938 C 246.617188 246.710938 245.453125 249.625 245.453125 254.386719 L 245.453125 258.515625 C 245.453125 264.078125 246.617188 266.195313 252.175781 266.195313 L 264.726563 266.195313 C 270.019531 266.195313 271.609375 265.664063 271.609375 260.898438 L 283.363281 260.898438 L 283.363281 264.5 C 283.363281 270.960938 281.03125 276.042969 269.226563 276.042969 L 250.273438 276.042969 C 239.683594 276.042969 233.382813 273.394531 233.382813 262.171875 "/>
<g clip-path="url(#clip3)" clip-rule="nonzero">
<path style=" stroke:none;fill-rule:nonzero;fill:rgb(64.698792%,22.698975%,20.399475%);fill-opacity:1;" d="M 0.015625 290.804688 L 439.488281 290.804688 L 439.488281 287 L 0.015625 287 Z M 0.015625 290.804688 "/>
</g>
<path style=" stroke:none;fill-rule:nonzero;fill:rgb(65.499878%,66.299438%,67.498779%);fill-opacity:1;" d="M 387.289063 180.917969 L 402.625 180.917969 L 402.625 152.917969 L 387.289063 152.917969 Z M 387.289063 180.917969 "/>
<path style=" stroke:none;fill-rule:nonzero;fill:rgb(65.499878%,66.299438%,67.498779%);fill-opacity:1;" d="M 174.652344 30.875 L 189.988281 30.875 L 189.988281 2.875 L 174.652344 2.875 Z M 174.652344 30.875 "/>
<path style=" stroke:none;fill-rule:evenodd;fill:rgb(64.698792%,22.698975%,20.399475%);fill-opacity:1;" d="M 402.527344 165.949219 C 402.527344 157.53125 395.703125 150.707031 387.285156 150.707031 C 378.867188 150.707031 371.976563 157.53125 372.039063 165.949219 C 372.082031 171.34375 372.226563 173.898438 372.226563 181.019531 L 402.472656 181.015625 C 402.472656 175.5 402.527344 173.574219 402.527344 165.949219 M 418.328125 165.773438 C 418.328125 157.355469 411.503906 150.53125 403.082031 150.53125 C 394.664063 150.53125 387.839844 157.355469 387.839844 165.773438 C 387.839844 174.195313 394.664063 181.019531 403.082031 181.019531 C 411.503906 181.019531 418.328125 174.195313 418.328125 165.773438 "/>
<path style=" stroke:none;fill-rule:nonzero;fill:rgb(64.698792%,22.698975%,20.399475%);fill-opacity:1;" d="M 321.3125 166.164063 C 321.3125 157.746094 328.136719 150.921875 336.558594 150.921875 C 344.976563 150.921875 351.800781 157.746094 351.800781 166.164063 C 351.800781 174.582031 344.976563 181.40625 336.558594 181.40625 C 328.136719 181.40625 321.3125 174.582031 321.3125 166.164063 "/>
<path style=" stroke:none;fill-rule:nonzero;fill:rgb(64.698792%,22.698975%,20.399475%);fill-opacity:1;" d="M 349.867188 185.957031 L 350.257813 185.945313 C 353.871094 185.945313 356.804688 188.875 356.804688 192.492188 C 356.804688 192.851563 356.773438 193.203125 356.71875 193.546875 L 356.71875 224.589844 L 363.191406 220.324219 L 363.191406 193.007813 C 363.175781 192.828125 363.167969 192.644531 363.167969 192.460938 C 363.167969 188.847656 366.097656 185.914063 369.714844 185.914063 C 369.925781 185.914063 370.132813 185.925781 370.339844 185.945313 L 418.363281 185.917969 C 422.027344 186.019531 424.96875 189.039063 424.96875 192.726563 L 424.964844 233.015625 L 418.5 233.015625 L 418.453125 276.882813 L 320.078125 276.855469 L 320.078125 232.835938 L 313.585938 232.835938 L 313.585938 193.46875 C 313.558594 193.234375 313.546875 193 313.546875 192.757813 C 313.546875 192.4375 313.542969 192.125 313.585938 191.816406 C 314.03125 188.59375 316.765625 186.09375 320.078125 185.96875 "/>
<path style=" stroke:none;fill-rule:nonzero;fill:rgb(100%,100%,100%);fill-opacity:1;" d="M 347.046875 232.054688 C 362.851563 214.492188 386.207031 209.761719 399.214844 221.484375 C 412.222656 233.203125 409.957031 256.941406 394.152344 274.5 C 378.351563 292.0625 360.769531 300.449219 341.988281 285.070313 C 322.242188 268.902344 331.242188 249.613281 347.046875 232.054688 "/>
<g clip-path="url(#clip4)" clip-rule="nonzero">
<g clip-path="url(#clip5)" clip-rule="nonzero">
<path style="fill:none;stroke-width:26.17;stroke-linecap:butt;stroke-linejoin:miter;stroke:rgb(72.898865%,73.699951%,74.499512%);stroke-opacity:1;stroke-miterlimit:3.864;" d="M 3866.054688 329.992188 C 3872.421875 416.710938 3827.382813 473.507813 3804.609375 556.164063 C 3792.304688 599.132813 3770.507813 637.21875 3778.632813 689.015625 C 3784.726563 727.921875 3837.226563 748.507813 3816.523438 781.554688 C 3791.679688 821.242188 3744.0625 764.796875 3703.359375 741.710938 C 3586.328125 703.742188 3499.882813 729.40625 3405.859375 796.203125 " transform="matrix(0.1,0,0,-0.1,0,317.3)"/>
</g>
</g>
<g clip-path="url(#clip6)" clip-rule="nonzero">
<g clip-path="url(#clip7)" clip-rule="nonzero">
<path style="fill:none;stroke-width:26.17;stroke-linecap:butt;stroke-linejoin:miter;stroke:rgb(72.898865%,73.699951%,74.499512%);stroke-opacity:1;stroke-miterlimit:3.864;" d="M 3374.257813 757.609375 C 3380.898438 750.8125 3414.765625 734.289063 3421.796875 727.921875 C 3493.515625 663.3125 3523.4375 664.210938 3619.101563 677.609375 C 3659.453125 683.46875 3689.21875 692.023438 3708.867188 665.96875 C 3752.109375 608.507813 3733.4375 568.507813 3766.054688 489.679688 C 3793.359375 424.445313 3834.453125 370.265625 3812.890625 302.023438 " transform="matrix(0.1,0,0,-0.1,0,317.3)"/>
</g>
</g>
<g clip-path="url(#clip8)" clip-rule="nonzero">
<g clip-path="url(#clip9)" clip-rule="nonzero">
<path style="fill:none;stroke-width:26.17;stroke-linecap:butt;stroke-linejoin:miter;stroke:rgb(72.898865%,73.699951%,74.499512%);stroke-opacity:1;stroke-miterlimit:3.864;" d="M 3343.867188 711.867188 C 3360.585938 696.789063 3415.898438 666.164063 3432.617188 651.085938 C 3507.8125 583.351563 3587.382813 672.882813 3662.617188 605.109375 C 3705.703125 566.242188 3706.171875 520.265625 3717.96875 463.429688 C 3724.6875 431.085938 3728.476563 420.65625 3741.640625 390.148438 C 3759.101563 349.679688 3762.382813 310.460938 3757.929688 259.484375 " transform="matrix(0.1,0,0,-0.1,0,317.3)"/>
</g>
</g>
<g clip-path="url(#clip10)" clip-rule="nonzero">
<g clip-path="url(#clip11)" clip-rule="nonzero">
<path style="fill:none;stroke-width:26.17;stroke-linecap:butt;stroke-linejoin:miter;stroke:rgb(72.898865%,73.699951%,74.499512%);stroke-opacity:1;stroke-miterlimit:3.864;" d="M 3322.148438 652.921875 C 3373.710938 620.8125 3431.328125 573.234375 3491.679688 573.039063 C 3532.34375 573.078125 3577.382813 573.664063 3610.46875 550.734375 C 3653.515625 520.851563 3660.507813 489.5625 3680.234375 418.273438 C 3697.460938 355.96875 3713.59375 294.953125 3692.578125 231.828125 " transform="matrix(0.1,0,0,-0.1,0,317.3)"/>
</g>
</g>
<g clip-path="url(#clip12)" clip-rule="nonzero">
<g clip-path="url(#clip13)" clip-rule="nonzero">
<path style="fill:none;stroke-width:26.17;stroke-linecap:butt;stroke-linejoin:miter;stroke:rgb(72.898865%,73.699951%,74.499512%);stroke-opacity:1;stroke-miterlimit:3.864;" d="M 3266.210938 612.960938 C 3338.710938 565.1875 3501.601563 534.132813 3565.390625 476.671875 C 3649.414063 400.96875 3673.125 328.195313 3642.773438 219.25 " transform="matrix(0.1,0,0,-0.1,0,317.3)"/>
</g>
</g>
<g clip-path="url(#clip14)" clip-rule="nonzero">
<g clip-path="url(#clip15)" clip-rule="nonzero">
<path style="fill:none;stroke-width:26.17;stroke-linecap:butt;stroke-linejoin:miter;stroke:rgb(72.898865%,73.699951%,74.499512%);stroke-opacity:1;stroke-miterlimit:3.864;" d="M 3271.992188 551.242188 C 3342.96875 500.8125 3456.992188 469.210938 3521.210938 411.320313 C 3574.414063 363.351563 3612.265625 314.289063 3613.515625 242.21875 " transform="matrix(0.1,0,0,-0.1,0,317.3)"/>
</g>
</g>
<g clip-path="url(#clip16)" clip-rule="nonzero">
<g clip-path="url(#clip17)" clip-rule="nonzero">
<path style="fill:none;stroke-width:26.17;stroke-linecap:butt;stroke-linejoin:miter;stroke:rgb(72.898865%,73.699951%,74.499512%);stroke-opacity:1;stroke-miterlimit:3.864;" d="M 3260.429688 476.085938 C 3337.226563 449.914063 3411.875 415.1875 3472.148438 360.890625 C 3480.078125 353.742188 3518.164063 310.8125 3526.09375 303.664063 C 3539.296875 291.75 3566.25 240.734375 3579.453125 228.820313 " transform="matrix(0.1,0,0,-0.1,0,317.3)"/>
</g>
</g>
<g clip-path="url(#clip18)" clip-rule="nonzero">
<g clip-path="url(#clip19)" clip-rule="nonzero">
<path style="fill:none;stroke-width:26.17;stroke-linecap:butt;stroke-linejoin:miter;stroke:rgb(72.898865%,73.699951%,74.499512%);stroke-opacity:1;stroke-miterlimit:3.864;" d="M 3429.804688 835.929688 C 3491.914063 806.4375 3541.875 780.8125 3608.164063 780.070313 C 3697.460938 779.289063 3766.09375 907.960938 3839.53125 848.976563 C 3905.195313 796.203125 3842.773438 697.101563 3854.179688 633.390625 C 3870.234375 543.625 3950.234375 468.664063 3921.71875 381.164063 " transform="matrix(0.1,0,0,-0.1,0,317.3)"/>
</g>
</g>
<g clip-path="url(#clip20)" clip-rule="nonzero">
<g clip-path="url(#clip21)" clip-rule="nonzero">
<path style="fill:none;stroke-width:26.17;stroke-linecap:butt;stroke-linejoin:miter;stroke:rgb(72.898865%,73.699951%,74.499512%);stroke-opacity:1;stroke-miterlimit:3.864;" d="M 3478.515625 887.609375 C 3546.953125 822.726563 3589.375 833.546875 3708.828125 891.28125 C 3787.109375 929.09375 3865.234375 934.914063 3919.53125 866.867188 C 3958.671875 817.804688 3926.015625 713.390625 3947.578125 616.632813 C 3960.429688 558.78125 3987.382813 498.390625 3976.640625 438.703125 " transform="matrix(0.1,0,0,-0.1,0,317.3)"/>
</g>
</g>
<g clip-path="url(#clip22)" clip-rule="nonzero">
<g clip-path="url(#clip23)" clip-rule="nonzero">
<path style="fill:none;stroke-width:26.17;stroke-linecap:butt;stroke-linejoin:miter;stroke:rgb(72.898865%,73.699951%,74.499512%);stroke-opacity:1;stroke-miterlimit:3.864;" d="M 3538.789063 933.546875 C 3561.40625 864.210938 3669.765625 951.75 3722.109375 963.15625 C 3832.460938 987.179688 3920.9375 982.570313 3993.007813 896.164063 C 4050.195313 827.570313 3999.804688 671.90625 4039.570313 543.273438 " transform="matrix(0.1,0,0,-0.1,0,317.3)"/>
</g>
</g>
<path style=" stroke:none;fill-rule:evenodd;fill:rgb(64.698792%,22.698975%,20.399475%);fill-opacity:1;" d="M 189.664063 15.417969 C 189.664063 7 182.839844 0.171875 174.421875 0.171875 C 166.003906 0.171875 159.113281 7 159.179688 15.417969 C 159.21875 20.8125 159.363281 23.367188 159.363281 30.488281 L 189.609375 30.484375 C 189.609375 24.96875 189.664063 23.042969 189.664063 15.417969 M 205.464844 15.242188 C 205.464844 6.824219 198.640625 0 190.21875 0 C 181.800781 0 174.976563 6.824219 174.976563 15.242188 C 174.976563 23.660156 181.800781 30.488281 190.21875 30.488281 C 198.640625 30.488281 205.464844 23.660156 205.464844 15.242188 "/>
<path style=" stroke:none;fill-rule:nonzero;fill:rgb(64.698792%,22.698975%,20.399475%);fill-opacity:1;" d="M 108.449219 15.632813 C 108.449219 7.214844 115.277344 0.386719 123.695313 0.386719 C 132.113281 0.386719 138.9375 7.214844 138.9375 15.632813 C 138.9375 24.050781 132.113281 30.875 123.695313 30.875 C 115.277344 30.875 108.449219 24.050781 108.449219 15.632813 "/>
<path style=" stroke:none;fill-rule:nonzero;fill:rgb(64.698792%,22.698975%,20.399475%);fill-opacity:1;" d="M 137.007813 35.425781 L 137.394531 35.414063 C 141.011719 35.414063 143.941406 38.34375 143.941406 41.960938 C 143.941406 42.316406 143.910156 42.671875 143.855469 43.011719 L 143.855469 74.058594 L 150.328125 69.792969 L 150.328125 42.476563 C 150.3125 42.296875 150.304688 42.113281 150.304688 41.929688 C 150.304688 38.3125 153.234375 35.382813 156.851563 35.382813 C 157.0625 35.382813 157.269531 35.394531 157.472656 35.414063 L 205.503906 35.386719 C 209.164063 35.488281 212.105469 38.507813 212.105469 42.195313 L 212.101563 82.484375 L 205.636719 82.484375 L 205.589844 126.347656 L 107.21875 126.324219 L 107.21875 82.304688 L 100.722656 82.304688 L 100.722656 42.9375 C 100.695313 42.703125 100.683594 42.464844 100.683594 42.226563 C 100.683594 41.90625 100.679688 41.589844 100.722656 41.28125 C 101.167969 38.0625 103.902344 35.5625 107.21875 35.4375 "/>
<path style=" stroke:none;fill-rule:nonzero;fill:rgb(100%,100%,100%);fill-opacity:1;" d="M 134.183594 81.519531 C 149.988281 63.960938 173.34375 59.230469 186.351563 70.949219 C 199.359375 82.671875 197.09375 106.410156 181.289063 123.96875 C 165.488281 141.527344 147.90625 149.917969 129.125 134.539063 C 109.378906 118.371094 118.382813 99.082031 134.183594 81.519531 "/>
<g clip-path="url(#clip24)" clip-rule="nonzero">
<g clip-path="url(#clip25)" clip-rule="nonzero">
<path style="fill:none;stroke-width:26.17;stroke-linecap:butt;stroke-linejoin:miter;stroke:rgb(72.898865%,73.699951%,74.499512%);stroke-opacity:1;stroke-miterlimit:3.864;" d="M 1737.421875 1835.304688 C 1743.789063 1922.023438 1698.75 1978.820313 1675.976563 2061.515625 C 1663.671875 2104.484375 1641.875 2142.53125 1650 2194.367188 C 1656.09375 2233.234375 1708.59375 2253.820313 1687.890625 2286.867188 C 1663.046875 2326.554688 1615.429688 2270.148438 1574.726563 2247.023438 C 1457.695313 2209.054688 1371.25 2234.757813 1277.226563 2301.554688 " transform="matrix(0.1,0,0,-0.1,0,317.3)"/>
</g>
</g>
<g clip-path="url(#clip26)" clip-rule="nonzero">
<g clip-path="url(#clip27)" clip-rule="nonzero">
<path style="fill:none;stroke-width:26.17;stroke-linecap:butt;stroke-linejoin:miter;stroke:rgb(72.898865%,73.699951%,74.499512%);stroke-opacity:1;stroke-miterlimit:3.864;" d="M 1245.625 2262.921875 C 1252.265625 2256.125 1286.132813 2239.601563 1293.164063 2233.234375 C 1364.882813 2168.625 1394.804688 2169.523438 1490.46875 2182.921875 C 1530.78125 2188.78125 1560.625 2197.335938 1580.195313 2171.28125 C 1623.476563 2113.859375 1604.804688 2073.820313 1637.421875 1994.992188 C 1664.765625 1929.757813 1705.859375 1875.617188 1684.296875 1807.375 " transform="matrix(0.1,0,0,-0.1,0,317.3)"/>
</g>
</g>
<g clip-path="url(#clip28)" clip-rule="nonzero">
<g clip-path="url(#clip29)" clip-rule="nonzero">
<path style="fill:none;stroke-width:26.17;stroke-linecap:butt;stroke-linejoin:miter;stroke:rgb(72.898865%,73.699951%,74.499512%);stroke-opacity:1;stroke-miterlimit:3.864;" d="M 1215.234375 2217.21875 C 1231.953125 2202.140625 1287.265625 2171.515625 1303.984375 2156.4375 C 1379.21875 2088.664063 1458.75 2178.234375 1533.984375 2110.421875 C 1577.109375 2071.59375 1577.539063 2025.617188 1589.335938 1968.78125 C 1596.054688 1936.398438 1599.84375 1925.96875 1613.007813 1895.5 C 1630.507813 1854.992188 1633.75 1815.773438 1629.296875 1764.796875 " transform="matrix(0.1,0,0,-0.1,0,317.3)"/>
</g>
</g>
<g clip-path="url(#clip30)" clip-rule="nonzero">
<g clip-path="url(#clip31)" clip-rule="nonzero">
<path style="fill:none;stroke-width:26.17;stroke-linecap:butt;stroke-linejoin:miter;stroke:rgb(72.898865%,73.699951%,74.499512%);stroke-opacity:1;stroke-miterlimit:3.864;" d="M 1193.515625 2158.273438 C 1245.078125 2126.164063 1302.695313 2078.585938 1363.046875 2078.351563 C 1403.710938 2078.390625 1448.789063 2079.015625 1481.835938 2056.046875 C 1524.882813 2026.164063 1531.875 1994.875 1551.601563 1923.625 C 1568.828125 1861.320313 1584.960938 1800.304688 1563.945313 1737.140625 " transform="matrix(0.1,0,0,-0.1,0,317.3)"/>
</g>
</g>
<g clip-path="url(#clip32)" clip-rule="nonzero">
<g clip-path="url(#clip33)" clip-rule="nonzero">
<path style="fill:none;stroke-width:26.17;stroke-linecap:butt;stroke-linejoin:miter;stroke:rgb(72.898865%,73.699951%,74.499512%);stroke-opacity:1;stroke-miterlimit:3.864;" d="M 1137.578125 2118.3125 C 1210.078125 2070.5 1372.96875 2039.484375 1436.757813 1981.984375 C 1520.78125 1906.28125 1544.492188 1833.546875 1514.140625 1724.601563 " transform="matrix(0.1,0,0,-0.1,0,317.3)"/>
</g>
</g>
<g clip-path="url(#clip34)" clip-rule="nonzero">
<g clip-path="url(#clip35)" clip-rule="nonzero">
<path style="fill:none;stroke-width:26.17;stroke-linecap:butt;stroke-linejoin:miter;stroke:rgb(72.898865%,73.699951%,74.499512%);stroke-opacity:1;stroke-miterlimit:3.864;" d="M 1143.359375 2056.554688 C 1214.335938 2006.164063 1328.359375 1974.523438 1392.578125 1916.632813 C 1445.78125 1868.703125 1483.632813 1819.601563 1484.882813 1747.53125 " transform="matrix(0.1,0,0,-0.1,0,317.3)"/>
</g>
</g>
<g clip-path="url(#clip36)" clip-rule="nonzero">
<g clip-path="url(#clip37)" clip-rule="nonzero">
<path style="fill:none;stroke-width:26.17;stroke-linecap:butt;stroke-linejoin:miter;stroke:rgb(72.898865%,73.699951%,74.499512%);stroke-opacity:1;stroke-miterlimit:3.864;" d="M 1131.796875 1981.398438 C 1208.59375 1955.226563 1283.242188 1920.5 1343.515625 1866.203125 C 1351.445313 1859.054688 1389.53125 1816.125 1397.460938 1808.976563 C 1410.664063 1797.101563 1437.617188 1746.046875 1450.820313 1734.171875 " transform="matrix(0.1,0,0,-0.1,0,317.3)"/>
</g>
</g>
<g clip-path="url(#clip38)" clip-rule="nonzero">
<g clip-path="url(#clip39)" clip-rule="nonzero">
<path style="fill:none;stroke-width:26.17;stroke-linecap:butt;stroke-linejoin:miter;stroke:rgb(72.898865%,73.699951%,74.499512%);stroke-opacity:1;stroke-miterlimit:3.864;" d="M 1301.171875 2341.28125 C 1363.28125 2311.75 1413.28125 2286.125 1479.53125 2285.382813 C 1568.828125 2284.601563 1637.460938 2413.273438 1710.898438 2354.289063 C 1776.5625 2301.515625 1714.140625 2202.414063 1725.546875 2138.703125 C 1741.601563 2048.9375 1821.601563 1973.976563 1793.085938 1886.515625 " transform="matrix(0.1,0,0,-0.1,0,317.3)"/>
</g>
</g>
<g clip-path="url(#clip40)" clip-rule="nonzero">
<g clip-path="url(#clip41)" clip-rule="nonzero">
<path style="fill:none;stroke-width:26.17;stroke-linecap:butt;stroke-linejoin:miter;stroke:rgb(72.898865%,73.699951%,74.499512%);stroke-opacity:1;stroke-miterlimit:3.864;" d="M 1349.882813 2392.921875 C 1418.320313 2328.039063 1460.742188 2338.898438 1580.234375 2396.59375 C 1658.476563 2434.445313 1736.601563 2440.226563 1790.898438 2372.179688 C 1830.039063 2323.117188 1797.382813 2218.703125 1818.945313 2121.945313 C 1831.796875 2064.132813 1858.75 2003.742188 1848.046875 1944.054688 " transform="matrix(0.1,0,0,-0.1,0,317.3)"/>
</g>
</g>
<g clip-path="url(#clip42)" clip-rule="nonzero">
<g clip-path="url(#clip43)" clip-rule="nonzero">
<path style="fill:none;stroke-width:26.17;stroke-linecap:butt;stroke-linejoin:miter;stroke:rgb(72.898865%,73.699951%,74.499512%);stroke-opacity:1;stroke-miterlimit:3.864;" d="M 1410.15625 2438.859375 C 1432.8125 2369.523438 1541.132813 2457.0625 1593.476563 2468.46875 C 1703.867188 2492.492188 1792.304688 2487.882813 1864.375 2401.476563 C 1921.5625 2332.882813 1871.171875 2177.257813 1910.9375 2048.585938 " transform="matrix(0.1,0,0,-0.1,0,317.3)"/>
</g>
</g>
</g>
</svg>
