<?xml version="1.0" encoding="UTF-8"?>
<svg xmlns="http://www.w3.org/2000/svg" xmlns:xlink="http://www.w3.org/1999/xlink" width="594.4pt" height="491.13pt" viewBox="0 0 594.4 491.13" version="1.1">
<defs>
<clipPath id="clip1">
  <path d="M 0 0 L 594.398438 0 L 594.398438 491.128906 L 0 491.128906 Z M 0 0 "/>
</clipPath>
</defs>
<g id="surface1">
<g clip-path="url(#clip1)" clip-rule="nonzero">
<path style=" stroke:none;fill-rule:nonzero;fill:rgb(100%,93.299866%,0%);fill-opacity:0;" d="M 0 491.128906 L 594.402344 491.128906 L 594.402344 0 L 0 0 Z M 0 491.128906 "/>
</g>
<path style=" stroke:none;fill-rule:nonzero;fill:rgb(40.79895%,6.698608%,50.59967%);fill-opacity:1;" d="M 206.09375 25.199219 L 255.402344 25.199219 L 277.53125 102.960938 L 289.539063 102.960938 L 312.300781 25.199219 L 360.976563 25.199219 L 452.011719 326.753906 L 437.472656 340.660156 L 351.496094 340.660156 L 333.792969 280.601563 L 319.253906 280.601563 L 304.082031 340.660156 L 265.519531 340.660156 L 245.921875 280.601563 L 233.910156 280.601563 L 216.839844 340.660156 L 130.230469 340.660156 L 115.691406 326.753906 "/>
<path style=" stroke:none;fill-rule:nonzero;fill:rgb(40.79895%,6.698608%,50.59967%);fill-opacity:1;" d="M 256.402344 371.9375 L 271.074219 371.9375 L 277.660156 395.082031 L 281.234375 395.082031 L 288.007813 371.9375 L 302.496094 371.9375 L 329.589844 461.683594 L 325.261719 465.824219 L 299.671875 465.824219 L 294.40625 447.949219 L 290.078125 447.949219 L 285.5625 465.824219 L 274.085938 465.824219 L 268.253906 447.949219 L 264.679688 447.949219 L 259.601563 465.824219 L 233.824219 465.824219 L 229.496094 461.683594 "/>
<path style=" stroke:none;fill-rule:nonzero;fill:rgb(40.79895%,6.698608%,50.59967%);fill-opacity:1;" d="M 103.726563 376.398438 L 108.507813 372.253906 L 167.769531 372.253906 L 171.910156 376.714844 L 158.847656 419.09375 L 153.75 424.828125 L 138.457031 424.828125 L 128.578125 460.195313 L 125.074219 464.972656 L 100.859375 464.972656 L 97.355469 461.148438 L 107.867188 424.828125 L 95.441406 424.828125 L 90.34375 419.09375 "/>
<path style=" stroke:none;fill-rule:nonzero;fill:rgb(40.79895%,6.698608%,50.59967%);fill-opacity:1;" d="M 364.039063 450 L 355.660156 422.914063 L 362.949219 422.914063 L 371.046875 450 Z M 344.921875 388.1875 L 352.566406 388.1875 L 358.566406 408.261719 L 351.128906 408.261719 Z M 392.074219 418.773438 L 383.792969 418.773438 L 388.890625 408.261719 L 378.375 374.804688 L 374.871094 372.257813 L 314.652344 372.257813 L 310.828125 376.398438 L 336.953125 461.46875 L 341.097656 465.929688 L 401.636719 465.929688 L 404.503906 460.832031 "/>
<path style=" stroke:none;fill-rule:nonzero;fill:rgb(40.79895%,6.698608%,50.59967%);fill-opacity:1;" d="M 440.1875 450 L 421.070313 388.1875 L 428.714844 388.1875 L 447.195313 450 Z M 454.84375 376.398438 L 450.703125 371.9375 L 390.484375 371.9375 L 386.976563 376.71875 L 412.148438 461.789063 L 416.609375 465.292969 L 477.785156 465.292969 L 480.652344 461.148438 "/>
<path style=" stroke:none;fill-rule:nonzero;fill:rgb(40.79895%,6.698608%,50.59967%);fill-opacity:1;" d="M 208.058594 407.769531 L 200.195313 407.769531 L 206.582031 388.117188 L 213.707031 388.117188 Z M 243.917969 372.253906 L 183.699219 371.9375 L 179.878906 375.441406 L 162.988281 432.792969 L 143.871094 432.792969 L 135.589844 460.832031 L 138.136719 465.929688 L 179.558594 465.929688 L 184.019531 461.789063 L 194.851563 425.144531 L 202.816406 425.144531 L 191.664063 461.789063 L 195.808594 465.609375 L 219.066406 465.609375 L 222.890625 460.832031 L 247.425781 376.078125 "/>
<path style=" stroke:none;fill-rule:nonzero;fill:rgb(40.79895%,6.698608%,50.59967%);fill-opacity:1;" d="M 493.609375 371.414063 L 485.996094 371.414063 L 485.996094 379.5625 L 479.269531 379.5625 L 479.269531 371.414063 L 471.65625 371.414063 L 471.65625 366.8125 L 479.269531 366.8125 L 479.269531 358.667969 L 485.996094 358.667969 L 485.996094 366.8125 L 493.609375 366.8125 Z M 482.632813 347.6875 C 470.800781 347.6875 461.207031 357.28125 461.207031 369.113281 C 461.207031 380.945313 470.800781 390.539063 482.632813 390.539063 C 494.464844 390.539063 504.058594 380.945313 504.058594 369.113281 C 504.058594 357.28125 494.464844 347.6875 482.632813 347.6875 "/>
</g>
</svg>
